HIERARCHY
ROOT Hips
{
	OFFSET 0.000000 97.167313 0.000000
	CHANNELS 6 Xposition Yposition Zposition Xrotation Yrotation Zrotation
	JOINT Spine
	{
		OFFSET 0.000000 13.784798 0.064400
		CHANNELS 3 Xrotation Yrotation Zrotation
		JOINT Spine1
		{
			OFFSET 0.000000 12.037903 0.404700
			CHANNELS 3 Xrotation Yrotation Zrotation
			JOINT Spine2
			{
				OFFSET 0.000000 17.795601 0.420200
				CHANNELS 3 Xrotation Yrotation Zrotation
				JOINT Neck
				{
					OFFSET 0.000000 39.131302 11.954600
					CHANNELS 3 Xrotation Yrotation Zrotation
					JOINT Head
					{
						OFFSET 0.000000 14.456192 15.627699
						CHANNELS 3 Xrotation Yrotation Zrotation
						JOINT HeadTop_End
						{
							OFFSET 0.000000 15.703506 7.603401
							CHANNELS 3 Xrotation Yrotation Zrotation
							End Site
							{
								OFFSET 0.000000 17.447403 0.000000
							}
						}
					}
				}
				JOINT LeftShoulder
				{
					OFFSET 17.399500 24.608795 1.168800
					CHANNELS 3 Xrotation Yrotation Zrotation
					JOINT LeftArm
					{
						OFFSET 18.980635 5.765305 1.818600
						CHANNELS 3 Xrotation Yrotation Zrotation
						JOINT LeftForeArm
						{
							OFFSET 49.290169 0.000000 0.000000
							CHANNELS 3 Xrotation Yrotation Zrotation
							JOINT LeftHand
							{
								OFFSET 31.562012 0.000000 0.000000
								CHANNELS 3 Xrotation Yrotation Zrotation
								JOINT LeftHandThumb1
								{
									OFFSET 6.133995 -4.388519 7.076070
									CHANNELS 3 Xrotation Yrotation Zrotation
									JOINT LeftHandThumb2
									{
										OFFSET 6.037666 -3.485840 3.485847
										CHANNELS 3 Xrotation Yrotation Zrotation
										JOINT LeftHandThumb3
										{
											OFFSET 6.496506 -3.750763 3.750761
											CHANNELS 3 Xrotation Yrotation Zrotation
											JOINT LeftHandThumb4
											{
												OFFSET 5.616882 -3.242905 3.242910
												CHANNELS 3 Xrotation Yrotation Zrotation
												End Site
												{
													OFFSET -1.254608 7.132141 0.375429
												}
											}
										}
									}
								}
								JOINT LeftHandPinky1
								{
									OFFSET 18.920792 -0.453171 -11.426712
									CHANNELS 3 Xrotation Yrotation Zrotation
									JOINT LeftHandPinky2
									{
										OFFSET 4.919586 0.000000 0.000000
										CHANNELS 3 Xrotation Yrotation Zrotation
										JOINT LeftHandPinky3
										{
											OFFSET 5.233047 0.000000 0.000000
											CHANNELS 3 Xrotation Yrotation Zrotation
											JOINT LeftHandPinky4
											{
												OFFSET 5.571716 0.000000 0.000000
												CHANNELS 3 Xrotation Yrotation Zrotation
												End Site
												{
													OFFSET -3.459808 4.342407 -0.466164
												}
											}
										}
									}
								}
								JOINT LeftHandRing1
								{
									OFFSET 22.726120 -0.094986 -6.500475
									CHANNELS 3 Xrotation Yrotation Zrotation
									JOINT LeftHandRing2
									{
										OFFSET 6.408615 0.000000 0.000000
										CHANNELS 3 Xrotation Yrotation Zrotation
										JOINT LeftHandRing3
										{
											OFFSET 6.150223 0.000000 0.000000
											CHANNELS 3 Xrotation Yrotation Zrotation
											JOINT LeftHandRing4
											{
												OFFSET 6.145386 0.000000 0.000000
												CHANNELS 3 Xrotation Yrotation Zrotation
												End Site
												{
													OFFSET -3.671402 4.923981 -0.202372
												}
											}
										}
									}
								}
								JOINT LeftHandMiddle1
								{
									OFFSET 23.373947 0.000000 0.000001
									CHANNELS 3 Xrotation Yrotation Zrotation
									JOINT LeftHandMiddle2
									{
										OFFSET 6.996567 0.000000 0.000000
										CHANNELS 3 Xrotation Yrotation Zrotation
										JOINT LeftHandMiddle3
										{
											OFFSET 7.015945 0.000000 0.000000
											CHANNELS 3 Xrotation Yrotation Zrotation
											JOINT LeftHandMiddle4
											{
												OFFSET 7.721573 0.000000 0.000000
												CHANNELS 3 Xrotation Yrotation Zrotation
												End Site
												{
													OFFSET -4.651108 6.158463 0.251582
												}
											}
										}
									}
								}
								JOINT LeftHandIndex1
								{
									OFFSET 21.310577 -0.490082 6.209344
									CHANNELS 3 Xrotation Yrotation Zrotation
									JOINT LeftHandIndex2
									{
										OFFSET 7.536453 0.000000 0.000000
										CHANNELS 3 Xrotation Yrotation Zrotation
										JOINT LeftHandIndex3
										{
											OFFSET 7.512344 0.000000 0.000000
											CHANNELS 3 Xrotation Yrotation Zrotation
											JOINT LeftHandIndex4
											{
												OFFSET 10.212402 0.000000 0.000001
												CHANNELS 3 Xrotation Yrotation Zrotation
												End Site
												{
													OFFSET -5.180801 8.690506 1.388433
												}
											}
										}
									}
								}
							}
						}
					}
				}
				JOINT RightShoulder
				{
					OFFSET -17.399500 24.608795 1.168800
					CHANNELS 3 Xrotation Yrotation Zrotation
					JOINT RightArm
					{
						OFFSET -18.980635 5.765305 1.818600
						CHANNELS 3 Xrotation Yrotation Zrotation
						JOINT RightForeArm
						{
							OFFSET -49.290169 0.000000 0.000000
							CHANNELS 3 Xrotation Yrotation Zrotation
							JOINT RightHand
							{
								OFFSET -31.562012 0.000000 0.000000
								CHANNELS 3 Xrotation Yrotation Zrotation
								JOINT RightHandThumb1
								{
									OFFSET -6.133995 -4.388519 7.076070
									CHANNELS 3 Xrotation Yrotation Zrotation
									JOINT RightHandThumb2
									{
										OFFSET -6.037666 -3.485840 3.485847
										CHANNELS 3 Xrotation Yrotation Zrotation
										JOINT RightHandThumb3
										{
											OFFSET -6.496506 -3.750763 3.750761
											CHANNELS 3 Xrotation Yrotation Zrotation
											JOINT RightHandThumb4
											{
												OFFSET -5.616882 -3.242905 3.242910
												CHANNELS 3 Xrotation Yrotation Zrotation
												End Site
												{
													OFFSET 1.254608 7.132141 0.375429
												}
											}
										}
									}
								}
								JOINT RightHandIndex1
								{
									OFFSET -21.310577 -0.490082 6.209344
									CHANNELS 3 Xrotation Yrotation Zrotation
									JOINT RightHandIndex2
									{
										OFFSET -7.536453 0.000000 0.000000
										CHANNELS 3 Xrotation Yrotation Zrotation
										JOINT RightHandIndex3
										{
											OFFSET -7.512344 0.000000 0.000000
											CHANNELS 3 Xrotation Yrotation Zrotation
											JOINT RightHandIndex4
											{
												OFFSET -10.212402 0.000000 0.000001
												CHANNELS 3 Xrotation Yrotation Zrotation
												End Site
												{
													OFFSET 5.180801 8.690506 1.388433
												}
											}
										}
									}
								}
								JOINT RightHandMiddle1
								{
									OFFSET -23.373947 0.000000 0.000001
									CHANNELS 3 Xrotation Yrotation Zrotation
									JOINT RightHandMiddle2
									{
										OFFSET -6.996567 0.000000 0.000000
										CHANNELS 3 Xrotation Yrotation Zrotation
										JOINT RightHandMiddle3
										{
											OFFSET -7.015945 0.000000 0.000000
											CHANNELS 3 Xrotation Yrotation Zrotation
											JOINT RightHandMiddle4
											{
												OFFSET -7.721573 0.000000 0.000000
												CHANNELS 3 Xrotation Yrotation Zrotation
												End Site
												{
													OFFSET 4.651108 6.158463 0.251582
												}
											}
										}
									}
								}
								JOINT RightHandRing1
								{
									OFFSET -22.726120 -0.094986 -6.500475
									CHANNELS 3 Xrotation Yrotation Zrotation
									JOINT RightHandRing2
									{
										OFFSET -6.408615 0.000000 0.000000
										CHANNELS 3 Xrotation Yrotation Zrotation
										JOINT RightHandRing3
										{
											OFFSET -6.150223 0.000000 0.000000
											CHANNELS 3 Xrotation Yrotation Zrotation
											JOINT RightHandRing4
											{
												OFFSET -6.145386 0.000000 0.000000
												CHANNELS 3 Xrotation Yrotation Zrotation
												End Site
												{
													OFFSET 3.671402 4.923981 -0.202372
												}
											}
										}
									}
								}
								JOINT RightHandPinky1
								{
									OFFSET -18.920792 -0.453171 -11.426712
									CHANNELS 3 Xrotation Yrotation Zrotation
									JOINT RightHandPinky2
									{
										OFFSET -4.919586 0.000000 0.000000
										CHANNELS 3 Xrotation Yrotation Zrotation
										JOINT RightHandPinky3
										{
											OFFSET -5.233047 0.000000 0.000000
											CHANNELS 3 Xrotation Yrotation Zrotation
											JOINT RightHandPinky4
											{
												OFFSET -5.571716 0.000000 0.000000
												CHANNELS 3 Xrotation Yrotation Zrotation
												End Site
												{
													OFFSET 3.459808 4.342407 -0.466164
												}
											}
										}
									}
								}
							}
						}
					}
				}
			}
		}
	}
	JOINT LeftUpLeg
	{
		OFFSET 19.899099 -7.885101 -3.429500
		CHANNELS 3 Xrotation Yrotation Zrotation
		JOINT LeftLeg
		{
			OFFSET 1.745560 -36.997807 10.304700
			CHANNELS 3 Xrotation Yrotation Zrotation
			JOINT LeftFoot
			{
				OFFSET -1.745558 -29.803308 -13.615400
				CHANNELS 3 Xrotation Yrotation Zrotation
				JOINT LeftToeBase
				{
					OFFSET 1.181900 -18.539904 15.226099
					CHANNELS 3 Xrotation Yrotation Zrotation
					JOINT LeftToe_End
					{
						OFFSET -0.863701 1.402801 16.534700
						CHANNELS 3 Xrotation Yrotation Zrotation
						End Site
						{
							OFFSET 0.000000 16.616566 0.000000
						}
					}
				}
			}
		}
	}
	JOINT RightUpLeg
	{
		OFFSET -19.899099 -7.885101 -3.429500
		CHANNELS 3 Xrotation Yrotation Zrotation
		JOINT RightLeg
		{
			OFFSET -1.745560 -36.997807 10.304700
			CHANNELS 3 Xrotation Yrotation Zrotation
			JOINT RightFoot
			{
				OFFSET 1.745558 -29.803308 -13.615400
				CHANNELS 3 Xrotation Yrotation Zrotation
				JOINT RightToeBase
				{
					OFFSET -1.181900 -18.539904 15.226099
					CHANNELS 3 Xrotation Yrotation Zrotation
					JOINT RightToe_End
					{
						OFFSET 0.863701 1.402801 16.534700
						CHANNELS 3 Xrotation Yrotation Zrotation
						End Site
						{
							OFFSET 0.000000 16.616566 0.000000
						}
					}
				}
			}
		}
	}
}
MOTION
Frames: 4
Frame Time: 0.033333
-3.076354 81.386604 -0.054143 8.301444 4.463340 -1.183783 4.194834 1.560443 0.294873 11.025826 -0.630337 -0.254995 13.016624 -0.772989 0.074518 -0.000003 -0.000000 -0.000000 -19.249741 -0.016962 0.160064 0.000002 0.000000 -0.000000 1.253069 4.822499 -15.195723 -10.036540 -15.825816 -59.312905 0.000011 -59.720223 0.000003 -7.146899 -2.189485 0.938635 -1.486872 -0.157495 6.304637 20.232683 29.713990 -1.736406 2.641455 -0.592021 15.586345 -0.000000 0.000002 -0.000001 9.037034 8.498476 -84.962014 7.156253 5.704130 -102.910932 0.198057 -1.511903 14.925326 -0.000001 0.000001 -0.000004 9.037042 8.498491 -84.961994 7.156252 5.704112 -102.910945 0.198051 -1.511916 14.925340 -0.000001 0.000004 0.000005 9.037037 8.498497 -84.962000 7.156263 5.704119 -102.910932 0.198054 -1.511922 14.925358 -0.000000 0.000003 0.000001 4.570863 8.232511 -62.810809 7.157110 5.703938 -102.919497 0.198059 -1.511911 14.925346 -0.000004 0.000003 -0.000003 0.903287 -7.263735 15.354048 12.218370 9.388569 55.752925 0.000027 63.340955 -0.000014 -6.383734 5.473562 -1.200230 -2.334393 2.175153 -5.551594 20.566314 -29.826883 2.652313 2.998933 6.291560 -21.144763 -0.000001 -0.000001 -0.000001 2.972716 -6.626956 62.106289 5.695215 -4.540269 102.892394 -0.000003 0.000008 0.000040 0.000000 0.000000 0.000001 6.663889 -7.155841 84.173674 5.695023 -4.540310 102.890065 -0.000002 -0.000000 0.000003 0.000001 0.000001 -0.000002 6.663883 -7.155841 84.173680 5.695031 -4.540300 102.890072 0.000000 0.000006 -0.000007 0.000001 0.000001 -0.000003 6.663877 -7.155822 84.173680 5.695010 -4.540305 102.890052 0.000007 0.000004 0.000012 -0.000002 0.000004 -0.000003 -12.296978 2.244879 2.116384 45.895371 -4.461482 -7.543589 -30.213495 0.414413 7.436195 -12.657794 -0.000008 -0.000000 0.000000 0.000001 0.000000 -32.937057 10.064478 -4.786361 69.458284 -0.144481 3.035944 11.920099 2.905801 15.395692 -22.615438 2.690511 -4.579667 -0.000006 0.000000 0.000000 
-9.457728 80.105789 16.009987 4.619648 7.589075 -2.081995 3.247212 -3.639868 2.679856 8.653891 -1.837050 0.436860 10.650947 -1.946928 0.785292 2.124456 0.056131 -0.269549 -10.785530 -3.037513 1.417140 0.000002 0.000000 0.000000 0.568193 -1.310887 -14.810710 -6.988463 -27.230076 -47.413858 0.000100 -63.844818 0.000077 -8.860909 -6.569296 -2.189365 -0.197000 -0.263647 5.944112 17.925587 29.227025 0.076965 0.415711 0.420752 15.997553 0.000003 0.000005 0.000000 6.395527 11.771912 -75.008133 5.830767 5.851033 -89.800984 0.019415 -0.476900 4.658955 -0.000000 -0.000005 -0.000003 6.684665 8.588269 -75.467423 5.871458 5.851024 -90.200025 0.021293 -0.499406 4.879307 -0.000002 0.000000 0.000003 6.201557 8.478021 -75.029328 6.028429 5.848390 -91.740048 0.032622 -0.618115 6.043090 -0.000001 -0.000003 -0.000001 2.708249 6.272320 -52.749394 5.929659 5.850527 -90.770892 0.012284 -0.379560 3.706339 -0.000003 0.000003 0.000001 0.458824 -7.197898 12.960526 13.733951 -9.180567 60.864014 0.000007 57.380952 0.000004 -8.237453 10.194383 1.933326 -1.069890 2.264038 -5.224862 18.365042 -29.989055 0.617538 0.833728 2.795399 -20.426519 -0.000001 0.000001 0.000003 1.513177 -5.102936 54.866988 4.434228 -4.651854 87.253010 0.016273 -0.389364 4.785425 -0.000002 0.000002 -0.000001 4.311748 -7.008790 73.784976 4.758397 -4.656069 91.246785 0.021052 -0.442830 5.444268 0.000000 -0.000002 -0.000007 5.709803 -7.389359 74.358473 4.665703 -4.657157 90.105064 0.032679 -0.551354 6.784239 -0.000001 -0.000001 -0.000005 5.926312 -8.334958 75.063246 4.764181 -4.655951 91.318038 0.055270 -0.716101 8.825906 -0.000001 -0.000003 0.000000 7.716580 1.913167 12.371241 36.279629 -10.970282 -8.913668 -33.078627 1.777130 2.858933 -18.698024 -0.000001 -0.000002 0.000000 -0.000000 -0.000000 -41.179491 10.483749 -8.295557 75.034717 1.734234 3.831442 5.793788 3.467120 8.197003 -11.158481 -0.787950 2.596716 0.000001 0.000000 -0.000000 
-16.136467 76.571182 33.638771 1.801888 8.947658 -1.600629 0.506489 -10.518764 1.462784 3.843029 -3.340428 0.436653 5.859147 -3.443823 0.762310 4.180330 -0.156373 -0.595282 3.577303 -10.215856 3.857947 0.000001 0.000002 -0.000000 0.112351 -10.584910 -14.564692 -5.613852 -35.683555 -27.879891 0.000040 -60.041345 0.000045 -0.900749 -11.130672 -5.281993 2.445060 -0.551933 5.191104 12.829085 25.528636 2.927358 -4.440675 0.112091 15.774086 -0.000001 0.000001 -0.000001 0.632186 14.310384 -51.696209 2.999293 5.111144 -60.788083 0.185850 1.465366 -14.455339 -0.000003 0.000002 -0.000005 2.680396 7.241974 -52.890253 3.039440 5.133298 -61.237598 0.146008 1.301121 -12.805421 0.000000 0.000001 0.000002 1.157483 6.030186 -50.809774 3.370794 5.301015 -64.880513 0.063087 0.858357 -8.406914 -0.000001 -0.000003 0.000008 0.727813 1.714714 -30.187363 3.269557 5.252559 -63.779863 0.269254 1.757313 -17.420876 -0.000000 0.000003 0.000001 0.268429 -3.837311 10.521375 12.365695 -37.291969 56.430705 0.000017 46.242440 -0.000028 3.256193 17.743064 -1.374927 1.520288 2.511306 -4.538886 13.267153 -27.379361 -2.880529 -3.457193 -1.971500 -18.479987 0.000000 -0.000001 -0.000000 -0.021484 -1.358278 35.589575 2.096464 -3.891286 56.614776 0.184624 -1.299620 16.170213 -0.000000 -0.000002 0.000003 0.349490 -4.678788 49.295627 2.623625 -4.190624 64.084988 0.128472 -1.087461 13.474712 0.000001 -0.000000 -0.000007 3.372098 -7.159045 51.536841 2.416034 -4.083508 61.207996 0.233082 -1.456319 18.184854 -0.000002 -0.000001 -0.000000 4.062580 -10.385949 53.313018 2.629840 -4.193625 64.170030 0.393355 -1.875005 23.694575 0.000001 0.000002 0.000004 21.333526 8.055518 21.390723 28.690442 -10.891379 -6.699810 -22.275492 1.751962 -9.898272 -32.843159 0.131485 -1.200038 0.000000 0.000000 -0.000000 -48.451504 7.771530 -10.961209 80.336139 0.589134 1.963995 5.613944 1.897878 3.569480 -6.667212 -1.762401 10.408868 0.000001 0.000000 0.000000 
-21.540518 74.069656 49.642170 1.732181 12.189979 -0.106691 -5.477690 -18.888857 -2.561541 -0.689723 -5.277750 -0.106635 1.370019 -5.394934 0.173568 4.781371 -0.073901 -0.565144 16.817249 -13.579550 6.215692 0.000000 0.000002 -0.000000 0.377711 -16.716622 -11.099909 -6.000344 -43.611359 -9.153627 0.000007 -53.451418 -0.000008 5.988117 -17.987269 -5.559159 4.618453 -0.862225 4.559615 8.802755 22.328478 4.438491 -8.416215 -0.034055 15.159962 -0.000003 -0.000002 0.000003 -5.270933 12.203388 -32.067946 1.157361 3.497342 -36.611846 0.790710 2.941150 -30.090074 -0.000000 -0.000000 -0.000000 0.267510 4.460131 -34.169387 1.185553 3.534899 -37.071494 0.649883 2.683728 -27.220315 -0.000003 -0.000002 0.000005 -0.843484 2.441970 -30.798624 1.540577 3.960327 -42.499059 0.360713 2.025724 -20.191243 0.000001 -0.000000 0.000004 1.339240 -1.794866 -11.256679 1.458786 3.869382 -41.301211 1.047588 3.344812 -34.772517 -0.000002 0.000001 -0.000001 0.190208 -3.023278 4.436605 -2.288250 -54.251414 34.698109 0.000010 36.604801 -0.000012 12.026670 18.119466 -3.586965 3.651343 2.782210 -3.959939 9.137833 -24.915482 -5.022818 -6.807133 -6.070192 -16.996460 0.000000 -0.000001 0.000001 0.453406 1.459475 18.919158 0.660483 -2.392695 30.859307 0.443113 -1.984486 25.172573 -0.000002 -0.000002 0.000003 -0.973772 -1.589252 28.621088 1.148423 -3.064250 41.082311 0.270065 -1.564404 19.588067 0.000000 -0.000001 -0.000004 1.569420 -6.034474 32.196918 0.931196 -2.795952 36.834722 0.514224 -2.129095 27.152953 -0.000002 -0.000000 -0.000002 1.479688 -9.962588 34.433388 1.154144 -3.070791 41.189227 0.866934 -2.708147 35.496353 -0.000003 0.000000 -0.000003 16.732428 14.755080 26.775588 29.462697 -10.386484 -0.750674 0.452860 -5.253874 -17.594639 -51.462419 3.542081 -6.708483 0.000000 -0.000000 0.000000 -54.042960 3.758485 -15.771409 79.220837 -1.875279 1.281559 9.729865 0.877698 -4.326119 -13.172750 -3.928586 17.245741 -0.000002 -0.000000 -0.000000 
